<?xml version="1.0" standalone="no"?>
<!DOCTYPE svg PUBLIC "-//W3C//DTD SVG 20010904//EN"
 "http://www.w3.org/TR/2001/REC-SVG-20010904/DTD/svg10.dtd">
<svg version="1.0" xmlns="http://www.w3.org/2000/svg"
 width="500.000000pt" height="500.000000pt" viewBox="0 0 500.000000 500.000000"
 preserveAspectRatio="xMidYMid meet">

<g transform="translate(0.000000,500.000000) scale(0.100000,-0.100000)"
fill="#000000" stroke="none">
<path d="M2366 3713 c-4 -5 -14 -22 -21 -40 -10 -24 -23 -34 -52 -42 -69 -19
-103 -75 -83 -136 15 -45 40 -59 68 -39 33 23 37 -2 6 -39 -46 -54 -64 -105
-64 -182 0 -68 21 -130 62 -186 9 -14 7 -27 -9 -67 -12 -28 -19 -53 -15 -56 3
-3 19 -6 37 -6 23 0 37 8 53 29 21 28 22 29 59 15 49 -17 137 -17 186 0 36 13
38 13 58 -15 16 -22 28 -29 55 -29 39 0 41 6 17 72 -15 44 -15 49 0 65 77 86
75 257 -4 356 -34 42 -31 65 5 41 22 -13 25 -13 41 2 60 60 30 151 -57 175
-30 8 -42 18 -56 47 l-17 37 -131 3 c-71 1 -134 -1 -138 -5z m266 -53 c16 -33
16 -36 -2 -50 -10 -8 -23 -26 -30 -39 -11 -21 -10 -26 10 -41 13 -10 20 -22
17 -27 -6 -9 -34 -6 -104 13 -7 2 -13 14 -13 28 0 17 7 26 25 30 18 5 25 13
25 31 0 32 -41 50 -85 38 -25 -7 -30 -14 -30 -38 0 -23 5 -31 23 -33 16 -3 22
-10 22 -28 0 -14 -6 -26 -12 -28 -71 -19 -99 -22 -105 -13 -3 5 5 18 17 27 23
18 24 18 5 46 -10 16 -24 33 -31 37 -11 6 -11 13 -2 35 23 52 24 53 142 50
l111 -3 17 -35z m-97 -50 c4 -6 -10 -10 -34 -10 -23 0 -41 5 -41 10 0 6 15 10
34 10 19 0 38 -4 41 -10z m-179 -25 l26 -26 -24 -17 c-12 -10 -42 -30 -65 -45
-41 -26 -43 -26 -53 -8 -17 33 -11 71 15 96 31 32 69 32 101 0z m367 13 c44
-23 59 -67 37 -109 -10 -18 -12 -18 -53 8 -23 14 -53 34 -65 44 l-24 18 26 26
c28 28 46 31 79 13z m-376 -125 c-3 -3 -11 -2 -17 2 -9 6 -9 10 1 16 14 8 27
-7 16 -18z m327 6 c-8 -14 -24 -10 -24 6 0 9 6 12 15 9 8 -4 12 -10 9 -15z
m-92 -5 c150 -51 219 -227 142 -364 -37 -66 -101 -113 -175 -129 -61 -13 -107
-7 -169 24 -89 45 -135 124 -135 230 1 78 16 118 69 173 70 75 170 100 268 66z
m-244 -476 c9 -9 8 -16 -5 -30 -9 -10 -22 -18 -30 -18 -16 0 -16 1 -3 34 11
29 20 32 38 14z m360 -13 c15 -33 15 -35 -1 -35 -8 0 -21 8 -30 18 -13 14 -14
21 -5 30 17 17 23 15 36 -13z"/>
<path d="M2447 3459 c-182 -44 -238 -281 -96 -402 149 -128 380 -21 379 175
-1 149 -141 261 -283 227z m43 -34 c0 -8 5 -15 10 -15 6 0 10 7 10 16 0 10 6
14 18 10 58 -16 63 -19 58 -32 -7 -18 14 -30 25 -13 14 23 60 -28 53 -58 -5
-18 -3 -22 9 -17 21 8 34 -42 18 -67 -14 -24 -14 -29 3 -29 11 0 12 -8 4 -40
-7 -27 -15 -39 -26 -38 -8 2 -17 -3 -19 -9 -3 -7 1 -13 8 -13 7 0 0 -13 -16
-30 -21 -21 -32 -27 -41 -19 -14 11 -29 -4 -19 -20 10 -17 -66 -26 -77 -10 -7
11 -11 11 -15 2 -11 -28 -83 -11 -83 19 0 14 -5 18 -15 14 -33 -12 -82 37 -54
55 10 6 6 10 -13 18 -18 7 -27 19 -30 40 -3 21 0 31 9 31 17 0 17 17 0 27 -21
12 -2 69 25 76 17 5 19 9 10 20 -18 21 26 58 57 50 20 -5 23 -3 18 10 -5 12 2
19 26 26 45 13 47 13 47 -4z"/>
<path d="M2490 3331 c0 -41 -5 -62 -16 -72 -9 -7 -13 -21 -10 -32 3 -11 -2
-33 -10 -49 -22 -42 -8 -47 26 -10 16 18 33 32 39 32 18 0 23 41 7 59 -11 12
-16 36 -16 74 0 31 -4 57 -10 57 -6 0 -10 -26 -10 -59z m20 -101 c0 -5 -4 -10
-10 -10 -5 0 -10 5 -10 10 0 6 5 10 10 10 6 0 10 -4 10 -10z"/>
<path d="M2192 3363 c-23 -55 -32 -125 -16 -130 7 -2 14 15 17 41 4 24 14 60
24 80 12 25 14 39 6 47 -7 7 -16 -5 -31 -38z"/>
<path d="M2777 3403 c-3 -5 3 -33 13 -63 11 -30 19 -68 20 -83 0 -19 4 -27 13
-24 14 5 12 53 -5 107 -13 43 -34 74 -41 63z"/>
<path d="M2132 3348 c-21 -68 -23 -88 -9 -88 17 0 42 99 28 113 -5 5 -13 -4
-19 -25z"/>
<path d="M2847 3373 c-10 -16 16 -113 30 -113 9 0 11 10 6 33 -9 50 -28 93
-36 80z"/>
<path d="M1045 2601 c-123 -32 -206 -131 -246 -291 -20 -84 -18 -283 4 -347
34 -97 112 -131 176 -77 39 33 64 113 81 257 12 100 14 107 35 107 18 0 24 -7
29 -37 13 -71 57 -191 92 -249 97 -163 194 -201 285 -114 58 55 33 98 -28 50
-56 -44 -115 -13 -184 93 -36 55 -88 177 -103 238 -5 25 -2 28 37 38 81 20
127 75 127 151 0 69 -48 133 -123 165 -45 18 -140 27 -182 16z m142 -82 c52
-19 73 -48 73 -99 0 -25 -7 -55 -15 -67 -17 -25 -71 -43 -128 -43 l-37 0 23
48 c27 53 25 72 -7 72 -29 0 -52 -25 -69 -76 -11 -31 -19 -39 -38 -39 -33 0
-41 -44 -9 -52 21 -6 22 -9 16 -84 -8 -89 -39 -226 -54 -241 -17 -17 -42 -1
-60 39 -13 30 -16 68 -16 178 0 154 14 211 73 292 51 71 165 104 248 72z"/>
<path d="M2923 2528 c-38 -40 -56 -82 -78 -182 l-17 -76 -36 0 c-22 0 -47 -9
-68 -25 -34 -26 -74 -97 -74 -132 0 -23 -52 -73 -76 -73 -19 0 -18 12 12 112
30 98 25 118 -27 118 -33 0 -96 -52 -130 -106 -12 -20 -23 -33 -26 -30 -3 2 2
30 11 61 18 61 15 75 -15 75 -23 0 -45 -45 -63 -130 -14 -67 -19 -76 -56 -95
-49 -25 -63 -11 -57 55 3 32 14 79 26 105 23 53 21 65 -13 65 -31 0 -52 -34
-74 -115 -9 -36 -21 -65 -26 -65 -4 0 -24 -13 -43 -30 -18 -16 -43 -30 -54
-30 -18 0 -21 5 -17 38 3 20 13 67 23 103 22 79 17 99 -26 99 -35 0 -77 -38
-109 -99 -21 -40 -23 -36 -10 29 22 115 -71 83 -140 -49 l-30 -56 6 40 c3 22
10 56 15 75 13 51 11 60 -11 60 -25 0 -38 -25 -55 -106 -8 -39 -21 -72 -32
-80 -63 -50 -129 -64 -163 -35 -24 19 -24 20 -5 26 100 33 139 67 139 122 0
44 -32 73 -81 73 -50 0 -89 -24 -119 -75 -29 -50 -36 -125 -15 -163 30 -55
136 -69 214 -28 43 23 45 24 50 5 3 -10 13 -22 23 -26 21 -8 40 14 101 120 24
44 46 77 48 75 1 -1 -5 -38 -13 -81 -18 -84 -12 -112 24 -112 14 0 30 23 60
81 69 138 91 156 59 50 -20 -65 -19 -99 3 -119 27 -25 72 -21 122 11 l45 28
27 -28 c30 -32 80 -38 128 -13 25 13 29 13 34 0 11 -29 45 -17 65 23 23 46
110 162 120 162 5 0 -1 -31 -12 -70 -35 -119 3 -158 106 -110 l46 21 20 -20
c30 -30 94 -29 126 4 l25 24 26 -26 c22 -22 32 -25 73 -21 29 3 62 15 82 28
27 20 32 21 26 6 -21 -53 -20 -66 7 -76 14 -5 32 -7 40 -4 8 3 39 79 70 169
65 192 109 287 154 332 57 58 105 38 104 -42 -1 -52 -7 -77 -69 -279 -42 -142
-44 -151 -27 -163 43 -31 51 -21 102 143 82 260 144 374 202 374 62 0 62 -22
-6 -258 -24 -84 -44 -170 -44 -192 0 -56 33 -90 93 -97 56 -7 98 9 132 49 21
25 27 27 46 18 30 -17 99 -14 145 5 43 18 94 62 94 81 0 26 -20 23 -69 -7 -55
-34 -117 -43 -145 -20 -18 15 -13 31 11 31 33 0 104 43 118 71 20 38 19 61 -6
93 -17 21 -29 26 -66 26 -42 0 -51 -4 -89 -45 -46 -47 -60 -89 -52 -153 5 -33
2 -40 -30 -64 -37 -29 -80 -36 -100 -16 -19 19 -14 59 22 180 76 252 83 312
41 353 -57 58 -150 14 -220 -105 -25 -42 -26 -43 -21 -14 14 83 -20 144 -80
144 -65 0 -112 -37 -163 -129 l-29 -54 5 64 c4 55 2 68 -17 92 -17 21 -30 27
-61 27 -22 0 -49 -4 -59 -10 -13 -7 -21 -6 -30 5 -7 8 -29 15 -49 15 -29 0
-44 -7 -68 -32z m60 -100 c-6 -61 -28 -118 -72 -183 -25 -37 -26 -24 -6 79 29
152 89 232 78 104z m158 35 c14 -36 -1 -117 -46 -261 -28 -88 -39 -110 -51
-105 -9 3 -26 -5 -42 -19 -61 -58 -104 -57 -116 2 -5 26 2 43 43 103 66 99
106 172 126 234 23 74 66 97 86 46z m-1571 -273 c0 -22 -26 -45 -73 -65 -44
-18 -48 -8 -17 43 30 49 90 64 90 22z m2380 0 c0 -20 -22 -41 -67 -64 -32 -16
-33 -16 -33 4 0 11 8 32 17 46 28 43 83 53 83 14z m-1134 -42 c-17 -87 -31
-110 -64 -106 -26 3 -27 6 -27 55 1 44 6 57 30 83 16 16 39 30 51 30 21 0 21
-1 10 -62z"/>
<path d="M2245 2404 c-34 -35 -1 -83 48 -70 31 7 46 48 27 71 -16 20 -55 19
-75 -1z"/>
</g>
</svg>
