<?xml version="1.0" encoding="UTF-8"?>
<svg version="1.1" xmlns="http://www.w3.org/2000/svg" width="500" height="500">
<path d="M0 0 C0.62648438 0.35191406 1.25296875 0.70382813 1.8984375 1.06640625 C4.45308569 2.20127785 5.72342307 1.95961879 8.4375 1.4375 C11.6729869 0.99049194 12.81716554 0.9260882 15.9375 2.1875 C18.16743495 4.1471398 19.13494256 5.16890291 20 8 C20.0777346 10.33203812 20.08967728 12.66839059 20 15 C20.29132813 14.48050781 20.58265625 13.96101563 20.8828125 13.42578125 C23.94152749 8.22211832 26.91269349 3.29538651 32.984375 1.37109375 C36.40480935 0.7603019 38.68768125 0.86420924 41.875 2.25 C46.03622387 5.67689025 46.41647918 8.84556609 47 14 C47.515625 13.13375 48.03125 12.2675 48.5625 11.375 C51.75189032 6.63035927 55.56820765 2.79405465 61.0625 1 C64.60132331 1 66.83516902 1.38241972 70 3 C73.76915447 7.62025386 73.04073475 11.96970026 72.51000977 17.55859375 C71.60808653 23.64452478 69.79900763 29.44056426 68 35.3125 C67.26658647 37.74481724 66.53728364 40.17837853 65.8125 42.61328125 C65.32716797 44.20329956 65.32716797 44.20329956 64.83203125 45.82543945 C63.94326655 49.21646276 63.35738261 52.51309755 63 56 C64.15745487 57.36997745 64.15745487 57.36997745 67.3125 57.3125 C70.93867141 57.27349192 70.93867141 57.27349192 73.4375 55.5625 C75.44112362 52.27655726 75.11688941 50.1301312 74.96875 46.37109375 C75.03160892 41.60167337 76.40892184 37.6942036 79.6875 34.203125 C83.16958212 31.15630315 85.60368176 29.13172814 90.3125 28.6875 C94 29 94 29 96.9375 30.4375 C99.55256694 33.68652256 99.7341842 35.72974711 99.47265625 39.8203125 C98.67449582 43.50108538 97.02256296 44.84102646 94 47 C91.05753902 48.49583301 88.07452846 49.80100088 85 51 C86.12830857 52.33886622 86.12830857 52.33886622 89.0625 52.3125 C93.2649118 51.97897525 95.52368087 50.94416014 99.1328125 48.95703125 C101.37420316 47.80820131 103.50786612 47.31151673 106 47 C106.375 49.1875 106.375 49.1875 106 52 C101.06149994 57.05895128 95.57699773 60.12140222 88.375 60.3125 C84.88720992 60.19922135 82.13982491 59.62055479 79 58 C78.74347656 58.61230469 78.48695313 59.22460938 78.22265625 59.85546875 C76.1399571 63.50850975 72.92840124 64.80002761 69 66 C64.42775033 66.32658926 61.02179852 65.5534742 57 63.375 C54.29555869 60.16347595 54.2511587 58.19558547 54 54 C54.48764771 50.57996404 55.317942 47.2783855 56.1875 43.9375 C56.41727539 43.01300049 56.64705078 42.08850098 56.88378906 41.13598633 C58.50738632 34.67921175 60.3316515 28.29433224 62.21875 21.91015625 C63.19876951 18.25958359 63.69899297 14.76258793 64 11 C58.88989591 11.21801109 58.88989591 11.21801109 54.9609375 14.1796875 C47.13668324 25.43289781 43.4599237 39.09081095 39.28857422 52.00366211 C39.07791321 52.65403946 38.8672522 53.30441681 38.65020752 53.97450256 C38.06980491 55.77197983 37.49495125 57.57124607 36.92041016 59.37060547 C36 62 36 62 35 63 C32.0625 63.25 32.0625 63.25 29 63 C28.34 62.01 27.68 61.02 27 60 C27.60873367 57.15797703 28.32560561 54.53747931 29.2109375 51.78125 C29.71877215 50.10938173 30.22658389 48.4375065 30.734375 46.765625 C31.54883987 44.1425403 32.36837917 41.52110737 33.19042969 38.90039062 C37.61376605 25.24265278 37.61376605 25.24265278 38 11 C32.5521914 11.38007967 30.57162395 12.96395436 27 17 C18.11965715 30.80773806 13.9136032 47.47058741 9 63 C2.25 64.1484375 2.25 64.1484375 0 62.8125 C-1 61 -1 61 -0.6875 58.8125 C-0.3471875 57.9153125 -0.3471875 57.9153125 0 57 C-1.03125 57.495 -2.0625 57.99 -3.125 58.5 C-6.59879213 59.96080997 -9.19609703 60.56653874 -13 60 C-16.375 58 -16.375 58 -19 56 C-19.40605469 56.47566406 -19.81210937 56.95132813 -20.23046875 57.44140625 C-22.8798331 59.77495233 -25.27199588 59.84569081 -28.703125 60.1484375 C-32.3985861 59.90961518 -34.21495542 58.35657618 -37 56 C-37.680625 56.474375 -38.36125 56.94875 -39.0625 57.4375 C-42.49294332 59.26220389 -45.12958439 59.78888642 -49 60 C-51.21484375 59.01171875 -51.21484375 59.01171875 -53 58 C-53.02741912 56.4584364 -53.04658248 54.91672526 -53.0625 53.375 C-53.07410156 52.51648438 -53.08570313 51.65796875 -53.09765625 50.7734375 C-52.99215971 47.77733588 -52.54832468 44.94454671 -52 42 C-53.46159097 44.08111307 -54.91933992 46.16474461 -56.375 48.25 C-56.7875 48.83652344 -57.2 49.42304688 -57.625 50.02734375 C-59.29187707 52.4201189 -60.87724511 54.749959 -62.1640625 57.37109375 C-63 59 -63 59 -65 59.8125 C-67 60 -67 60 -69 59 C-69 58.34 -69 57.68 -69 57 C-69.99 57.515625 -70.98 58.03125 -72 58.5625 C-76.42502134 60.44739753 -79.34360189 60.14501593 -84 59 C-86.5 56.9375 -86.5 56.9375 -88 55 C-88.65226562 55.37253906 -89.30453125 55.74507813 -89.9765625 56.12890625 C-97.15591145 60.01507301 -97.15591145 60.01507301 -101.5 59.9375 C-104 59 -104 59 -106 57 C-107.60032885 51.63203981 -106.21330584 47.35281987 -105 42 C-107.97 47.61 -110.94 53.22 -114 59 C-115.65 59 -117.3 59 -119 59 C-120 58 -120 58 -120.09765625 55.05859375 C-120.08605469 53.86363281 -120.07445312 52.66867187 -120.0625 51.4375 C-120.05347656 50.23996094 -120.04445312 49.04242188 -120.03515625 47.80859375 C-120.02355469 46.88175781 -120.01195312 45.95492187 -120 45 C-120.72316406 46.26457031 -120.72316406 46.26457031 -121.4609375 47.5546875 C-122.09257812 48.65039062 -122.72421875 49.74609375 -123.375 50.875 C-124.00148437 51.96554687 -124.62796875 53.05609375 -125.2734375 54.1796875 C-127 57 -127 57 -129 59 C-131.625 59.125 -131.625 59.125 -134 59 C-134.33 57.68 -134.66 56.36 -135 55 C-135.92619141 55.54140625 -135.92619141 55.54140625 -136.87109375 56.09375 C-142.69612581 59.28554839 -147.33517023 61.16187645 -154 60 C-157.53050621 58.75778485 -159.40967318 57.66903706 -161.875 54.875 C-163.85233257 49.82181676 -163.82263347 45.49349346 -162.12109375 40.3359375 C-160.30979063 36.28292261 -158.4876788 32.83913602 -154.75 30.3125 C-150.13121191 28.69592417 -146.67773588 28.56213308 -142 30 C-139.11170111 32.27562943 -139.03904008 33.73647948 -138.5 37.375 C-138.99719943 40.97969587 -139.74177779 43.02152143 -142.22265625 45.7109375 C-145.70386967 48.23577361 -149.85483798 49.08243015 -154 50 C-154 50.66 -154 51.32 -154 52 C-146.54308006 52.4474152 -142.28643637 51.19095758 -136 47 C-135.18691571 44.31479636 -134.51829442 41.73427497 -133.9375 39 C-132.25083799 31.25083799 -132.25083799 31.25083799 -130 29 C-127.9375 29.1875 -127.9375 29.1875 -126 30 C-124.84058962 33.47823115 -125.29179116 35.45895578 -126 39 C-125.278125 37.906875 -124.55625 36.81375 -123.8125 35.6875 C-121.56687708 32.56012119 -119.64355258 30.4947908 -116 29 C-113.8125 28.9375 -113.8125 28.9375 -112 30 C-110.75 33.0625 -110.75 33.0625 -110 36 C-109.4225 35.21625 -108.845 34.4325 -108.25 33.625 C-105.05617978 29.8988764 -105.05617978 29.8988764 -102 29 C-98.75 29.375 -98.75 29.375 -96 30 C-94.35958839 34.04428524 -95.74475507 37.52418357 -96.9375 41.5 C-98.09661895 45.44023932 -99 48.8373089 -99 53 C-95.97619589 51.9920653 -94.15252718 51.15252718 -91.875 48.875 C-91.25625 48.25625 -90.6375 47.6375 -90 47 C-89.01 47 -88.02 47 -87 47 C-86.97421875 46.443125 -86.9484375 45.88625 -86.921875 45.3125 C-86.50137064 39.65480498 -85.52852339 34.59175395 -82 30 C-79.375 28.9375 -79.375 28.9375 -77 29 C-76.34 29.33 -75.68 29.66 -75 30 C-75.435018 34.08916919 -76.15535047 37.63033878 -77.5625 41.5 C-78.99167072 45.54469189 -79.27229405 48.73405994 -79 53 C-76.20150212 52.2079723 -74.33892635 51.64300419 -72 50 C-70.42058946 47.1534578 -69.75639576 44.15084601 -69 41 C-68.49046365 39.18429179 -67.96976482 37.37167599 -67.4375 35.5625 C-67.20933594 34.73878906 -66.98117188 33.91507812 -66.74609375 33.06640625 C-66 31 -66 31 -64 29 C-61.375 29.375 -61.375 29.375 -59 30 C-59.495 34.95 -59.495 34.95 -60 40 C-59.20335937 39.06027344 -59.20335937 39.06027344 -58.390625 38.1015625 C-57.68421875 37.28429687 -56.9778125 36.46703125 -56.25 35.625 C-55.20585937 34.40683594 -55.20585937 34.40683594 -54.140625 33.1640625 C-51.34343118 30.33624247 -49.3272818 29.12640779 -45.375 28.75 C-43 29 -43 29 -41 31 C-40.58777179 36.21082219 -41.48512467 40.46681531 -43 45.4375 C-43.37125 46.67371094 -43.7425 47.90992188 -44.125 49.18359375 C-44.41375 50.11300781 -44.7025 51.04242188 -45 52 C-44.21625 51.505 -43.4325 51.01 -42.625 50.5 C-40 49 -40 49 -38 49 C-37.95875 47.865625 -37.9175 46.73125 -37.875 45.5625 C-37.07714825 39.15689023 -33.41726116 34.04537482 -28.5625 29.9375 C-25.27657277 28.7353315 -22.4689005 28.79594703 -19 29 C-18.98582031 28.42894531 -18.97164062 27.85789062 -18.95703125 27.26953125 C-18.43527274 18.39963666 -16.26523049 8.47409644 -9.5625 2.1875 C-6.34869411 -0.13901601 -3.98632374 -0.70867978 0 0 Z M-6 9 C-10.12604523 16.42688141 -12.18208828 23.45702476 -12 32 C-7.15359228 27.62259948 -4.1608621 21.53357813 -3.75 15.0625 C-3.8325 14.051875 -3.915 13.04125 -4 12 C-3.67 11.01 -3.34 10.02 -3 9 C-3.99 9 -4.98 9 -6 9 Z M7 9 C4.61430405 11.89500182 3.37473343 14.43480724 2.25 18 C-0.67782779 26.38118643 -5.28722381 33.67220889 -10.5 40.8125 C-12.53760177 43.76648352 -13.37790722 45.47030557 -12.875 49.0625 C-12.58625 50.031875 -12.2975 51.00125 -12 52 C-9.85945818 53.05050452 -9.85945818 53.05050452 -7 53 C-5.06151005 51.59372939 -3.42701198 50.05186665 -1.74609375 48.34765625 C0 47 0 47 4 47 C4.96244398 44.00130342 5.91918473 41.00081538 6.875 38 C7.14441406 37.16082031 7.41382813 36.32164062 7.69140625 35.45703125 C11.10235072 25.18975109 11.10235072 25.18975109 12.125 14.5 C12.10695313 13.6440625 12.08890625 12.788125 12.0703125 11.90625 C12.04710937 11.2771875 12.02390625 10.648125 12 10 C10.35 9.67 8.7 9.34 7 9 Z M-150 36 C-152.89299854 38.72152236 -152.89299854 38.72152236 -155 42 C-154.67 42.99 -154.34 43.98 -154 45 C-150.48994665 43.3619751 -147.54456151 41.96865509 -145 39 C-145.33 38.01 -145.66 37.02 -146 36 C-147.32 36 -148.64 36 -150 36 Z M-26.59765625 39.578125 C-28.59075432 41.5989821 -29.3918149 43.22937897 -30 46 C-29.69912284 49.22828237 -29.69912284 49.22828237 -29 52 C-28.01 52.33 -27.02 52.66 -26 53 C-21.44855724 49.51056055 -20.7259813 45.42575497 -20 40 C-20 38.68 -20 37.36 -20 36 C-22.96168395 36 -24.44867943 37.70762195 -26.59765625 39.578125 Z M86.375 38.25 C84.23420779 40.72881204 83.35159057 41.83568489 83 45 C87.43090471 43.79157144 89.98112756 42.48331435 93 39 C92.67 38.01 92.34 37.02 92 36 C88.80340677 35.67460431 88.80340677 35.67460431 86.375 38.25 Z M-112 38 C-111 40 -111 40 -111 40 Z M-128 41 C-127 43 -127 43 -127 43 Z M-119 41 C-118 43 -118 43 -118 43 Z " fill="#FFFFFF" transform="translate(302,243)"/>
<path d="M0 0 C4.58400321 3.64369486 7.27676826 7.19630787 8.125 13.0625 C8.27237686 17.85961678 7.46851683 20.88580529 5 25 C0.50594538 29.26359028 -2.85084398 31.12136492 -9 31 C-3.03531492 51.04714541 -3.03531492 51.04714541 10 67 C12.79364247 67.96556963 13.73236198 68.08284034 16.625 67.1875 C19.10870329 66.10211522 19.10870329 66.10211522 21 64 C23.625 64.375 23.625 64.375 26 65 C25.86210108 67.96482674 25.71055664 70.21234484 23.66796875 72.4765625 C19.01925797 76.34483279 16.20160038 77.37855934 10.30078125 77.265625 C4.13642712 76.55395084 -0.14135236 71.28586751 -3.98046875 66.80078125 C-10.54996802 57.68988961 -17 43.41980004 -17 32 C-19.78460424 34.34137517 -20.42667095 35.91160043 -20.80859375 39.5 C-20.91349121 40.38244385 -21.01838867 41.2648877 -21.12646484 42.17407227 C-21.22910645 43.10662842 -21.33174805 44.03918457 -21.4375 45 C-23.72802235 62.98014175 -23.72802235 62.98014175 -29.1875 69.6875 C-33.21698233 71.56792509 -36.63485202 71.7394513 -41 71 C-45.24302115 69.01992346 -46.4762594 66.30067922 -48.109375 62.109375 C-50.30777236 55.85176646 -50.56322375 50.14474675 -50.4375 43.5625 C-50.44458984 42.52029297 -50.45167969 41.47808594 -50.45898438 40.40429688 C-50.35676743 27.72153289 -47.40653299 14.36751294 -38.890625 4.57421875 C-28.34664726 -5.36984301 -12.76760653 -8.04222902 0 0 Z M-33.375 11.125 C-42.59109735 23.4131298 -42.91850448 39.37533471 -41 54 C-40.31364503 57.14653644 -39.57148863 59.14803915 -38 62 C-35.95512704 62.73183913 -35.95512704 62.73183913 -34 63 C-31.47183599 56.91682666 -30.1922559 51.20153957 -29.3125 44.6875 C-29.18294922 43.79482422 -29.05339844 42.90214844 -28.91992188 41.98242188 C-28.44109746 38.61545017 -28 35.40533167 -28 32 C-29.32 31.34 -30.64 30.68 -32 30 C-32 28.68 -32 27.36 -32 26 C-31.22398438 25.938125 -30.44796875 25.87625 -29.6484375 25.8125 C-26.81878068 25.26909347 -26.81878068 25.26909347 -25.6640625 22.75 C-25.32117188 21.8425 -24.97828125 20.935 -24.625 20 C-23.40234375 17.2578125 -23.40234375 17.2578125 -22 15 C-18.1875 13.875 -18.1875 13.875 -15 14 C-16.33333333 18 -17.66666667 22 -19 26 C-10.18092209 25.69871831 -10.18092209 25.69871831 -3 21 C-1.85949919 17.90771431 -1.57527109 15.26758107 -2 12 C-4.37346259 7.92061117 -6.05909672 6.37636131 -10.4375 4.625 C-18.96244753 3.12939517 -27.21937205 4.51629283 -33.375 11.125 Z " fill="#FFFFFF" transform="translate(128,243)"/>
<path d="M0 0 C1.10214844 -0.02900391 2.20429688 -0.05800781 3.33984375 -0.08789062 C4.40074219 -0.09626953 5.46164063 -0.10464844 6.5546875 -0.11328125 C7.52647949 -0.12786377 8.49827148 -0.14244629 9.49951172 -0.1574707 C12.85948827 0.44397572 14.00212957 1.70180817 16.125 4.3125 C16.44597656 5.01375 16.76695312 5.715 17.09765625 6.4375 C18.48744959 8.97400495 19.88561481 9.32789855 22.5625 10.3125 C28.69269143 12.87495944 28.69269143 12.87495944 30.125 16.3125 C30.66867526 21.20557732 30.87061602 23.19407597 28.125 27.3125 C27.465 27.9725 26.805 28.6325 26.125 29.3125 C24.145 28.9825 22.165 28.6525 20.125 28.3125 C20.52332031 28.78558594 20.92164063 29.25867188 21.33203125 29.74609375 C26.76352917 36.52555466 29.75267959 43.18033063 29.4140625 51.984375 C28.69737924 57.75658073 27.28416444 62.78728363 23.75 67.4375 C21.84494294 70.07447789 21.84494294 70.07447789 22.5390625 72.34765625 C23.34073637 74.49470309 23.34073637 74.49470309 24.328125 76.48046875 C25.125 78.3125 25.125 78.3125 25.125 81.3125 C23.68916999 81.42086453 22.2509798 81.49826167 20.8125 81.5625 C20.01199219 81.60890625 19.21148437 81.6553125 18.38671875 81.703125 C16.125 81.3125 16.125 81.3125 14.33203125 79.296875 C13.93371094 78.64203125 13.53539062 77.9871875 13.125 77.3125 C12.53074219 77.46847656 11.93648438 77.62445313 11.32421875 77.78515625 C3.80670195 79.55054511 -3.07144918 79.4891623 -10.5859375 77.6484375 C-11.34132812 77.53757812 -12.09671875 77.42671875 -12.875 77.3125 C-13.473125 77.951875 -14.07125 78.59125 -14.6875 79.25 C-17.21538108 81.63343073 -17.79719904 81.59174254 -21.125 81.5625 C-22.3625 81.48 -23.6 81.3975 -24.875 81.3125 C-24.40642785 78.03249495 -23.87419837 75.31062953 -22.5625 72.25 C-22.335625 71.280625 -22.10875 70.31125 -21.875 69.3125 C-23.59962308 66.88433314 -23.59962308 66.88433314 -25.875 64.3125 C-29.80973005 56.11650629 -30.04098065 48.12294195 -27.1875 39.5625 C-25.38804017 35.01547786 -23.27337725 31.80527662 -19.875 28.3125 C-21.855 28.6425 -23.835 28.9725 -25.875 29.3125 C-28.73307336 26.45442664 -30.19232129 24.33143158 -30.375 20.3125 C-30.19843849 17.46611445 -29.79749285 16.16422545 -28.4375 13.5625 C-25.97476192 11.40009583 -24.29937062 10.56682948 -21.3125 9.375 C-17.72252065 7.93900826 -17.04686013 7.59523764 -14.9375 4.125 C-14.586875 3.196875 -14.23625 2.26875 -13.875 1.3125 C-9.76999122 -0.74000439 -4.51183056 0.03930166 0 0 Z M-11.875 4.3125 C-12.535 6.6225 -13.195 8.9325 -13.875 11.3125 C-12.13712435 14.04736777 -12.13712435 14.04736777 -9.875 16.3125 C-9.125 18.625 -9.125 18.625 -8.875 20.3125 C-9.865 20.6425 -10.855 20.9725 -11.875 21.3125 C-11.875 21.9725 -11.875 22.6325 -11.875 23.3125 C-8.575 22.6525 -5.275 21.9925 -1.875 21.3125 C-2.205 19.6625 -2.535 18.0125 -2.875 16.3125 C-3.865 15.6525 -4.855 14.9925 -5.875 14.3125 C-5.545 12.6625 -5.215 11.0125 -4.875 9.3125 C-1.575 9.3125 1.725 9.3125 5.125 9.3125 C5.455 10.9625 5.785 12.6125 6.125 14.3125 C5.135 14.93125 5.135 14.93125 4.125 15.5625 C3.465 16.14 2.805 16.7175 2.125 17.3125 C2.125 18.6325 2.125 19.9525 2.125 21.3125 C5.425 21.9725 8.725 22.6325 12.125 23.3125 C11.795 22.3225 11.465 21.3325 11.125 20.3125 C10.465 20.3125 9.805 20.3125 9.125 20.3125 C9.57875 19.24 10.0325 18.1675 10.5 17.0625 C10.76941406 16.42054688 11.03882813 15.77859375 11.31640625 15.1171875 C12.125 13.3125 12.125 13.3125 13.4375 11.1875 C14.55759342 8.77887126 14.55759342 8.77887126 12.125 4.3125 C4.205 4.3125 -3.715 4.3125 -11.875 4.3125 Z M-2.875 11.3125 C-2.875 11.9725 -2.875 12.6325 -2.875 13.3125 C-0.895 13.3125 1.085 13.3125 3.125 13.3125 C3.125 12.6525 3.125 11.9925 3.125 11.3125 C1.145 11.3125 -0.835 11.3125 -2.875 11.3125 Z M-24.75 14.5 C-26.19841076 16.83355067 -26.67434207 18.57017499 -26.875 21.3125 C-25.93190171 23.443955 -25.93190171 23.443955 -24.875 25.3125 C-18.57152545 22.31534281 -18.57152545 22.31534281 -12.875 18.3125 C-14.09507944 15.6219472 -14.09507944 15.6219472 -15.875 13.3125 C-20.53296849 12.859665 -20.53296849 12.859665 -24.75 14.5 Z M14.25 14.6875 C12.93526334 16.25716014 12.93526334 16.25716014 13.125 18.3125 C15.26068034 20.17193881 15.26068034 20.17193881 17.9375 22 C19.27748047 22.96486328 19.27748047 22.96486328 20.64453125 23.94921875 C21.46308594 24.39910156 22.28164063 24.84898437 23.125 25.3125 C24.115 24.9825 25.105 24.6525 26.125 24.3125 C27.15821725 21.02499056 27.32641923 19.73452124 25.8125 16.5625 C24.32065595 14.22398898 24.32065595 14.22398898 22.125 13.3125 C17.90764647 12.8854932 17.90764647 12.8854932 14.25 14.6875 Z M-16.875 24.3125 C-16.215 24.9725 -15.555 25.6325 -14.875 26.3125 C-14.875 25.6525 -14.875 24.9925 -14.875 24.3125 C-15.535 24.3125 -16.195 24.3125 -16.875 24.3125 Z M15.125 24.3125 C15.455 24.9725 15.785 25.6325 16.125 26.3125 C16.455 25.6525 16.785 24.9925 17.125 24.3125 C16.465 24.3125 15.805 24.3125 15.125 24.3125 Z M-19.875 34.3125 C-25.10261205 41.57307229 -25.74943382 47.4877541 -24.875 56.3125 C-22.52789368 64.03795309 -18.03983937 69.48259843 -11 73.33984375 C-3.99174217 76.40595655 3.13512463 76.26304546 10.3125 73.8125 C16.88153089 70.88948783 20.45764941 66.10934615 24.0625 60.0625 C26.2263255 52.42546883 26.25051292 44.58783604 22.59375 37.41796875 C18.77046596 31.9372504 13.57715997 27.26914615 7.125 25.3125 C-4.24107739 24.14465931 -12.29213804 25.46582772 -19.875 34.3125 Z M-18.875 72.3125 C-19.535 74.2925 -20.195 76.2725 -20.875 78.3125 C-19.555 77.6525 -18.235 76.9925 -16.875 76.3125 C-16.875 75.3225 -16.875 74.3325 -16.875 73.3125 C-17.535 72.9825 -18.195 72.6525 -18.875 72.3125 Z M18.125 72.3125 C17.135 73.7975 17.135 73.7975 16.125 75.3125 C17.115 76.3025 18.105 77.2925 19.125 78.3125 C19.785 77.9825 20.445 77.6525 21.125 77.3125 C20.465 75.6625 19.805 74.0125 19.125 72.3125 C18.795 72.3125 18.465 72.3125 18.125 72.3125 Z " fill="#FFFFFF" transform="translate(249.875,126.6875)"/>
<path d="M0 0 C6.47542196 6.03054564 9.38998226 11.31137369 10.0234375 20.12109375 C9.96741851 27.00209279 7.43845114 32.54204017 2.70703125 37.4921875 C-3.51618314 42.98912286 -9.44190864 43.65096243 -17.65625 43.37890625 C-23.97915848 42.66240844 -27.95405956 40.37242552 -32.3125 35.8125 C-36.16096442 30.91540767 -37.66023922 25.66954899 -38.4375 19.5625 C-37.36123225 10.7986055 -34.09730234 5.10693002 -27.22265625 -0.4375 C-19.03150255 -6.19578028 -8.18643505 -5.45762336 0 0 Z M-22 1 C-22 1.99 -22 2.98 -22 4 C-22.99 4.33 -23.98 4.66 -25 5 C-25.33 4.34 -25.66 3.68 -26 3 C-28.25245881 5.68841859 -29.88213958 7.64641875 -31 11 C-31.99 11.495 -31.99 11.495 -33 12 C-33.65772428 15.02934491 -33.65772428 15.02934491 -34 18 C-33.34 18 -32.68 18 -32 18 C-32 18.99 -32 19.98 -32 21 C-32.66 21 -33.32 21 -34 21 C-33.67 23.31 -33.34 25.62 -33 28 C-32.01 28 -31.02 28 -30 28 C-30.0825 28.763125 -30.165 29.52625 -30.25 30.3125 C-30.26734801 33.09676112 -30.26734801 33.09676112 -28.25 34.875 C-26.07664671 36.22699219 -26.07664671 36.22699219 -23.75 35.6875 C-22.88375 35.3471875 -22.88375 35.3471875 -22 35 C-22.33 35.99 -22.66 36.98 -23 38 C-20.35261084 39.4606285 -19.10551666 40 -16 40 C-16 39.34 -16 38.68 -16 38 C-14.68 38 -13.36 38 -12 38 C-12 38.66 -12 39.32 -12 40 C-9.03 39.505 -9.03 39.505 -6 39 C-6 38.01 -6 37.02 -6 36 C-5.236875 36.103125 -4.47375 36.20625 -3.6875 36.3125 C-0.79113257 36.29295594 -0.79113257 36.29295594 0.875 33.6875 C2.35706576 30.97449026 2.35706576 30.97449026 1 28 C2.32 28 3.64 28 5 28 C5.33 25.69 5.66 23.38 6 21 C5.34 21 4.68 21 4 21 C4 20.01 4 19.02 4 18 C4.66 18 5.32 18 6 18 C5.505 15.03 5.505 15.03 5 12 C3.68 12 2.36 12 1 12 C1.226875 11.236875 1.45375 10.47375 1.6875 9.6875 C2.27409643 7.02467776 2.27409643 7.02467776 0.875 5.125 C-1.02467776 3.72590357 -1.02467776 3.72590357 -3.6875 4.3125 C-4.450625 4.539375 -5.21375 4.76625 -6 5 C-6 3.68 -6 2.36 -6 1 C-8.97 0.505 -8.97 0.505 -12 0 C-12 0.66 -12 1.32 -12 2 C-13.32 2 -14.64 2 -16 2 C-16 1.34 -16 0.68 -16 0 C-19.05270463 -0.15811388 -19.05270463 -0.15811388 -22 1 Z " fill="#FFFFFF" transform="translate(264,157)"/>
<path d="M0 0 C1.32 0 2.64 0 4 0 C4.06058594 0.85464844 4.12117187 1.70929688 4.18359375 2.58984375 C4.26738281 3.69457031 4.35117188 4.79929688 4.4375 5.9375 C4.51871094 7.03964844 4.59992188 8.14179688 4.68359375 9.27734375 C4.70418084 11.91109903 4.70418084 11.91109903 6 13 C6.1875 15.4375 6.1875 15.4375 6 18 C5.34 18.66 4.68 19.32 4 20 C3.01 20 2.02 20 1 20 C0.566875 21.2065625 0.566875 21.2065625 0.125 22.4375 C-1 25 -1 25 -3 26 C-3.66 25.67 -4.32 25.34 -5 25 C-4.690625 24.319375 -4.38125 23.63875 -4.0625 22.9375 C-2.86806434 19.63523672 -2.46726078 16.47108011 -2 13 C-1.67 12.67 -1.34 12.34 -1 12 C-0.76572222 9.98405418 -0.58663876 7.961526 -0.4375 5.9375 C-0.35371094 4.83277344 -0.26992187 3.72804687 -0.18359375 2.58984375 C-0.12300781 1.73519531 -0.06242188 0.88054687 0 0 Z " fill="#FFFFFF" transform="translate(248,161)"/>
<path d="M0 0 C1 1 1 1 1.1875 3.9375 C1 7 1 7 -1 9 C-4.5625 9.1875 -4.5625 9.1875 -8 9 C-9 8 -9 8 -9.0625 4.4375 C-9.041875 3.303125 -9.02125 2.16875 -9 1 C-5.65903378 -1.10357132 -3.7625171 -1.11858616 0 0 Z " fill="#FFFFFF" transform="translate(232,258)"/>
<path d="M0 0 C4.59225513 11.33712984 4.59225513 11.33712984 4 18 C3.01 18 2.02 18 1 18 C0.35284867 15.9170757 -0.29267166 13.83364461 -0.9375 11.75 C-1.29714844 10.58984375 -1.65679687 9.4296875 -2.02734375 8.234375 C-2.75066637 5.82910942 -3.42542411 3.44345956 -4 1 C-2 0 -2 0 0 0 Z " fill="#FFFFFF" transform="translate(280,159)"/>
<path d="M0 0 C0.99 0.33 1.98 0.66 3 1 C2.79503906 1.56847656 2.59007812 2.13695312 2.37890625 2.72265625 C0.70907331 7.5084454 -0.46376936 11.95943201 -1 17 C-2.32 17.33 -3.64 17.66 -5 18 C-5.55709043 11.59346001 -3.7490111 6.76298713 -1 1 C-0.67 0.67 -0.34 0.34 0 0 Z " fill="#FFFFFF" transform="translate(221,159)"/>
<path d="M0 0 C1.32 0 2.64 0 4 0 C3.01 4.29 2.02 8.58 1 13 C0.01 13 -0.98 13 -2 13 C-1.85851011 11.3954444 -1.71164314 9.79136233 -1.5625 8.1875 C-1.48128906 7.29417969 -1.40007812 6.40085938 -1.31640625 5.48046875 C-1 3 -1 3 0 0 Z " fill="#FFFFFF" transform="translate(213,162)"/>
<path d="M0 0 C1.32 0 2.64 0 4 0 C5.45184478 4.53701494 6.23509196 8.18061476 6 13 C5.01 13 4.02 13 3 13 C2.01 8.71 1.02 4.42 0 0 Z " fill="#FFFFFF" transform="translate(283,162)"/>
</svg>
